<svg class="icon" viewBox="0 0 1024 1024" xmlns="http://www.w3.org/2000/svg" width="200" height="200"><defs><style/></defs><path d="M943.64 5.631c-5.887-3.788-27.131-14.333-52.317 9.368l-9.368 8.856C816.278 86.308 772.92 127.516 531.862 46.43a544.618 544.618 0 0 0-195.907-28.923c-52.214 2.048-103.917 12.081-153.777 29.69-85.181 29.999-135.604 71.975-137.703 73.715a29.793 29.793 0 0 0-4.863 5.222 29.588 29.588 0 0 0-11.364 37.113l373.078 842.958a29.588 29.588 0 1 0 54.108-23.958L282.564 591.51l2.866-5.529c39.263-74.943 83.697-159.869 312.16-139.597a243.002 243.002 0 0 0 128.387-23.65c35.22-16.842 68.75-42.284 99.668-75.711 48.427-52.215 91.12-125.571 117.074-201.18 9.93-28.82 16.483-55.49 19.043-77.144 2.354-20.476 3.071-49.348-18.122-63.016zm-63.118 138.113c-22.114 57.743-54.006 112.26-89.789 153.572-57.026 65.78-120.247 96.136-187.92 90.095-116.92-10.34-204.354 4.556-267.37 45.56-40.082 26.107-64.705 59.023-83.133 90.25L91.366 159.612a450.12 450.12 0 0 1 112.773-57.436c100.539-34.861 204.456-34.759 308.885.358 123.574 41.618 211.161 55.44 275.56 43.614 48.119-8.804 80.625-31.123 109.036-56.053a452.526 452.526 0 0 1-17.098 53.648z"/></svg>