<svg class="icon" viewBox="0 0 1024 1024" xmlns="http://www.w3.org/2000/svg" width="200" height="200"><defs><style/></defs><path d="M903.2 848l-144 160c-8.8 9.6-21.6 16-35.2 16-14.4 0-26.4-6.4-35.2-16l-144-160c-8-8.8-12.8-20-12.8-32 0-26.4 21.6-48 48-48 14.4 0 26.4 6.4 35.2 16l60 67.2V48c0-26.4 21.6-48 48-48s48 21.6 48 48v803.2L832 784c8.8-9.6 21.6-16 35.2-16 26.4 0 48 21.6 48 48 .8 12-4 23.2-12 32zM452 256c-14.4 0-26.4-6.4-35.2-16l-60-67.2V976c0 26.4-21.6 48-48 48s-48-21.6-48-48V172.8L200 240c-8.8 9.6-21.6 16-35.2 16-26.4 0-48-21.6-48-48 0-12 4.8-23.2 12.8-32L272 16c8.8-9.6 21.6-16 35.2-16 14.4 0 26.4 6.4 35.2 16l144 160c8 8.8 12.8 20 12.8 32 .8 26.4-20.8 48-47.2 48z"/></svg>