<svg class="icon" viewBox="0 0 1024 1024" xmlns="http://www.w3.org/2000/svg" width="200" height="200"><defs><style/></defs><path d="M957.134 489.311c0-54.122-43.868-97.988-97.992-97.988-48.117 0-88.015 34.683-96.346 80.418-5.839-32.189-27.376-58.827-56.334-71.862.82 6.518 1.387 13.093 1.387 19.779 0 0 5.47 117.258-78.04 228.511 28.817 32.645 71.014 63.249 132.986 83.596 202.67-66.424 194.34-242.454 194.34-242.454z"/><path d="M683.623 416.655c0-6.743-.57-13.26-1.361-19.778-9.747-76.51-74.923-135.737-154.154-135.737-76.312 0-139.646 55.09-152.851 127.574-13.148-72.485-76.51-127.574-152.852-127.574-85.86 0-155.512 69.598-155.512 155.514 0 0-13.178 279.35 308.364 384.764 113.263-37.122 184.93-95.84 230.324-156.307 83.538-111.252 78.042-228.456 78.042-228.456zM587.73 633.15c-17.001 22.613-38.114 44.945-64.325 65.686 11.957-12.126 22.613-24.481 31.965-36.95 77.36-102.977 72.2-211.51 72.2-211.51 0-6.178-.452-12.299-1.244-18.304-9.012-70.843-69.372-125.648-142.65-125.648-14.737 0-28.903 2.324-42.222 6.459 22.044-14.735 48.456-23.405 76.908-23.405 70.898 0 129.272 53.046 137.946 121.51.736 5.837 1.245 11.673 1.245 17.682-.002.001 4.931 104.963-69.823 204.48z"/></svg>