<svg class="icon" viewBox="0 0 1024 1024" xmlns="http://www.w3.org/2000/svg" width="200" height="200"><defs><style/></defs><path d="M510.4 952.05c-239.344 0-435.167-198.552-435.167-441.227 0-242.679 195.824-441.232 435.168-441.232 239.339 0 435.163 198.553 435.163 441.232 0 242.674-195.824 441.227-435.163 441.227zm0-827.306c-209.426 0-380.772 173.734-380.772 386.078 0 212.34 171.346 386.074 380.773 386.074 209.42 0 380.767-173.734 380.767-386.074 0-212.344-171.347-386.078-380.767-386.078zm0 0"/><path d="M714.381 577.006H464.164c-16.32 0-27.198-11.03-27.198-27.577V276.42c0-16.547 10.879-27.577 27.198-27.577 16.32 0 27.197 11.03 27.197 27.577v245.433h223.02c16.32 0 27.198 11.03 27.198 27.577 0 13.787-10.879 27.577-27.198 27.577zm0 0"/></svg>