<svg class="icon" viewBox="0 0 1024 1024" xmlns="http://www.w3.org/2000/svg" width="200" height="200"><defs><style/></defs><path d="M856.007 49.878h-62.429c-17.263 0-37.193 10.473-37.193 27.492s19.93 34.038 37.193 34.038h62.429c37.19 0 62.426 24.878 62.426 61.53v708.237c0 36.653-25.236 61.53-62.426 61.53H183.93c-37.186 0-78.36-24.877-78.36-61.53V172.938c0-36.653 25.232-61.53 62.425-61.53h78.364c17.27 0 23.907-17.02 23.907-34.039s-6.638-27.492-23.907-27.492h-78.364c-87.661 0-124.853 53.674-124.853 124.365v700.385c0 75.928 46.486 129.604 131.494 129.604H849.36c85.012 0 131.498-44.514 131.498-129.604V174.243c0-70.69-43.827-124.365-124.85-124.365zM246.36 327.413c0 17.023 14.61 31.42 31.874 31.42H747.09c17.267 0 31.88-14.398 31.88-31.42 0-17.02-14.613-31.42-31.88-31.42H278.234c-17.264-.002-31.874 14.4-31.874 31.42zM745.766 466.18H278.234c-17.263 0-31.874 14.402-31.874 31.425 0 17.016 14.61 31.415 31.874 31.415H747.09c17.267 0 31.88-14.4 31.88-31.415-1.325-18.331-15.942-31.425-33.205-31.425zm0 184.587H278.234c-17.263 0-31.874 14.402-31.874 31.418 0 17.02 14.61 31.418 31.874 31.418H747.09c17.267 0 31.88-14.4 31.88-31.418-1.325-18.324-15.942-31.418-33.205-31.418zm-341.35-523.649h217.828c25.236 0 46.487-24.871 46.487-53.674 0-28.797-21.251-53.675-47.818-53.675H404.416c-26.564 0-47.812 24.875-47.812 53.675 0 28.803 21.248 53.674 47.812 53.674zm0 0"/></svg>