<svg class="icon" viewBox="0 0 1024 1024" xmlns="http://www.w3.org/2000/svg" width="200" height="200"><defs><style/></defs><path d="M70.268 359.918C30.86 359.918 0 393.551 0 433.452v499.359c0 39.848 30.755 73.534 70.285 73.534h175.846V395.229l-4.661 17.567a2667.714 2667.714 0 0 1 31.408-52.578 2488.108 2488.108 0 0 1 75.37-115.994 1438.596 1438.596 0 0 1 47.634-65.06c44.58-57.096 82.044-90.888 93.572-90.888 83.51 0 99.523 36.034 76.57 127.205-4.448 17.656-10.24 36.282-18.22 59.41-3.124 9.004-13.506 38.259-14.936 42.372-5.596 16.067-9.216 27.366-11.829 37.376-3.76 14.654-5.296 26.165-3.654 37.253 3.284 22.192 20.303 38.665 44.05 38.665H912.03c33.315 0 49.54 24.823 37.552 63.117l-111.88 357.835c-14.336 45.833-63.418 84.215-105.649 84.215H210.838v70.62h521.216c73.993 0 149.751-59.232 173.056-133.755l111.88-357.835c25.636-82.008-21.944-154.836-104.96-154.836H561.435c13.065 0 24.206 10.77 25.812 21.646.089.653.583-3.072 2.19-9.27 1.977-7.662 5.12-17.443 10.116-31.779 1.324-3.813 11.758-33.191 15.007-42.584 8.58-24.858 14.919-45.25 19.95-65.2 32.662-129.766-5.296-215.076-145.072-215.076-43.432 0-89.46 41.49-149.222 118.043a1507.875 1507.875 0 0 0-50 68.272 2556.999 2556.999 0 0 0-77.54 119.332 2737.929 2737.929 0 0 0-32.486 54.377l-4.661 8.157v585.198l35.31-35.31H70.303c.936 0 .318-502.272.318-502.272 0-2.19 140.217-2.913 140.217-2.913v-70.62H70.268z"/></svg>